<?xml version="1.0" encoding="UTF-8"?>
<svg xmlns="http://www.w3.org/2000/svg" xmlns:xlink="http://www.w3.org/1999/xlink" width="4000" height="2000" viewBox="0 0 4000 2000">
<rect x="-400" y="-200" width="4800" height="2400" fill="rgb(100%, 100%, 100%)" fill-opacity="1"/>
<path fill-rule="evenodd" fill="rgb(88.28125%, 0%, 0%)" fill-opacity="1" d="M 3521.800781 1421.988281 L 3719.710938 1536.253906 L 3719.710938 1764.78125 L 3521.800781 1879.046875 L 3323.890625 1764.78125 L 3323.890625 1536.253906 Z M 3522.53125 1454.46875 C 3532.191406 1454.46875 3540.039062 1462.316406 3540.039062 1471.984375 C 3540.039062 1481.648438 3532.191406 1489.496094 3522.53125 1489.496094 C 3512.859375 1489.496094 3505.011719 1481.648438 3505.011719 1471.984375 C 3505.011719 1462.316406 3512.859375 1454.46875 3522.53125 1454.46875 "/>
<path fill-rule="evenodd" fill="rgb(21.99707%, 21.99707%, 21.99707%)" fill-opacity="1" d="M 3525.890625 1470.890625 C 3525.890625 1470.890625 3507.859375 1415.378906 3504.261719 1370.75 C 3503.089844 1356.28125 3503.410156 1342.988281 3506.53125 1333.265625 C 3509.238281 1324.804688 3514.128906 1319.230469 3522.601562 1319.0625 C 3529.460938 1318.925781 3534.589844 1320.585938 3538.300781 1323.753906 C 3544.058594 1328.679688 3546.328125 1336.953125 3546.808594 1346.617188 C 3548.140625 1373.136719 3535.53125 1409.808594 3530.328125 1426.214844 C 3529.738281 1428.074219 3530.78125 1430.0625 3532.640625 1430.652344 C 3534.5 1431.242188 3536.488281 1430.210938 3537.078125 1428.347656 C 3542.429688 1411.441406 3555.25 1373.601562 3553.878906 1346.265625 C 3553.28125 1334.390625 3549.96875 1324.429688 3542.898438 1318.378906 C 3538.050781 1314.238281 3531.421875 1311.8125 3522.460938 1311.992188 C 3505.578125 1312.328125 3497.929688 1327.566406 3496.75 1349.578125 C 3494.25 1396.101562 3519.160156 1473.074219 3519.160156 1473.074219 C 3519.769531 1474.929688 3521.761719 1475.949219 3523.621094 1475.347656 C 3525.480469 1474.742188 3526.488281 1472.746094 3525.890625 1470.890625 "/>
<path fill-rule="evenodd" fill="rgb(88.28125%, 0%, 0%)" fill-opacity="1" d="M 3045.878906 1751.496094 C 3045.878906 1785.324219 3032.441406 1817.769531 3008.519531 1841.6875 C 2984.601562 1865.609375 2952.160156 1879.046875 2918.328125 1879.046875 C 2918.328125 1879.046875 2918.328125 1879.046875 2918.320312 1879.046875 C 2884.5 1879.046875 2852.050781 1865.609375 2828.128906 1841.6875 C 2804.210938 1817.769531 2790.769531 1785.324219 2790.769531 1751.496094 C 2790.769531 1704.019531 2790.769531 1597.015625 2790.769531 1549.539062 C 2790.769531 1515.710938 2804.210938 1483.265625 2828.128906 1459.347656 C 2852.050781 1435.425781 2884.5 1421.988281 2918.320312 1421.988281 C 2918.328125 1421.988281 2918.328125 1421.988281 2918.328125 1421.988281 C 2952.160156 1421.988281 2984.601562 1435.425781 3008.519531 1459.347656 C 3032.441406 1483.265625 3045.878906 1515.710938 3045.878906 1549.539062 C 3045.878906 1597.015625 3045.878906 1704.019531 3045.878906 1751.496094 Z M 2918.421875 1448.070312 C 2928.089844 1448.070312 2935.941406 1455.914062 2935.941406 1465.582031 C 2935.941406 1475.246094 2928.089844 1483.09375 2918.421875 1483.09375 C 2908.761719 1483.09375 2900.910156 1475.246094 2900.910156 1465.582031 C 2900.910156 1455.914062 2908.761719 1448.070312 2918.421875 1448.070312 "/>
<path fill-rule="evenodd" fill="rgb(21.99707%, 21.99707%, 21.99707%)" fill-opacity="1" d="M 2921.789062 1464.492188 C 2921.789062 1464.492188 2903.761719 1408.976562 2900.160156 1364.351562 C 2898.988281 1349.882812 2899.308594 1336.585938 2902.421875 1326.863281 C 2905.128906 1318.402344 2910.019531 1312.828125 2918.488281 1312.660156 C 2925.351562 1312.523438 2930.488281 1314.183594 2934.199219 1317.355469 C 2939.960938 1322.277344 2942.230469 1330.550781 2942.710938 1340.21875 C 2944.039062 1366.738281 2931.429688 1403.410156 2926.230469 1419.8125 C 2925.640625 1421.671875 2926.671875 1423.660156 2928.53125 1424.25 C 2930.390625 1424.839844 2932.378906 1423.808594 2932.96875 1421.949219 C 2938.328125 1405.039062 2951.140625 1367.199219 2949.769531 1339.863281 C 2949.179688 1327.988281 2945.871094 1318.027344 2938.789062 1311.980469 C 2933.949219 1307.835938 2927.308594 1305.410156 2918.351562 1305.589844 C 2901.480469 1305.929688 2893.828125 1321.167969 2892.648438 1343.175781 C 2890.148438 1389.703125 2915.058594 1466.671875 2915.058594 1466.671875 C 2915.660156 1468.53125 2917.660156 1469.546875 2919.511719 1468.945312 C 2921.371094 1468.34375 2922.390625 1466.347656 2921.789062 1464.492188 "/>
<path fill-rule="evenodd" fill="rgb(88.28125%, 0%, 0%)" fill-opacity="1" d="M 2429.398438 1516.308594 L 2353.03125 1420.851562 L 2276.671875 1420.851562 L 2200.300781 1516.308594 L 2200.300781 1879.046875 L 2429.398438 1879.046875 Z M 2314.878906 1446.621094 C 2324.539062 1446.621094 2332.390625 1454.46875 2332.390625 1464.132812 C 2332.390625 1473.800781 2324.539062 1481.648438 2314.878906 1481.648438 C 2305.210938 1481.648438 2297.359375 1473.800781 2297.359375 1464.132812 C 2297.359375 1454.46875 2305.210938 1446.621094 2314.878906 1446.621094 "/>
<path fill-rule="evenodd" fill="rgb(21.99707%, 21.99707%, 21.99707%)" fill-opacity="1" d="M 2318.238281 1463.042969 C 2318.238281 1463.042969 2300.210938 1407.53125 2296.609375 1362.902344 C 2295.441406 1348.433594 2295.761719 1335.136719 2298.871094 1325.414062 C 2301.578125 1316.953125 2306.480469 1311.382812 2314.949219 1311.214844 C 2321.800781 1311.074219 2326.941406 1312.734375 2330.648438 1315.90625 C 2336.410156 1320.828125 2338.679688 1329.101562 2339.160156 1338.769531 C 2340.488281 1365.289062 2327.878906 1401.960938 2322.679688 1418.363281 C 2322.089844 1420.222656 2323.121094 1422.214844 2324.980469 1422.804688 C 2326.839844 1423.394531 2328.828125 1422.359375 2329.421875 1420.5 C 2334.78125 1403.59375 2347.601562 1365.753906 2346.230469 1338.417969 C 2345.628906 1326.542969 2342.320312 1316.578125 2335.25 1310.53125 C 2330.398438 1306.386719 2323.761719 1303.964844 2314.808594 1304.140625 C 2297.929688 1304.480469 2290.28125 1319.71875 2289.101562 1341.726562 C 2286.601562 1388.253906 2311.511719 1465.226562 2311.511719 1465.226562 C 2312.121094 1467.082031 2314.109375 1468.101562 2315.96875 1467.496094 C 2317.820312 1466.894531 2318.839844 1464.898438 2318.238281 1463.042969 "/>
<path fill-rule="evenodd" fill="rgb(88.28125%, 0%, 0%)" fill-opacity="1" d="M 1666.671875 1466.691406 C 1666.671875 1442.019531 1686.699219 1421.988281 1711.371094 1421.988281 C 1736.050781 1421.988281 1756.078125 1442.019531 1756.078125 1466.691406 L 1800.171875 1466.691406 C 1806.679688 1466.691406 1811.949219 1471.96875 1811.949219 1478.476562 C 1811.949219 1483.851562 1811.949219 1489.039062 1811.949219 1489.039062 L 1824.261719 1489.039062 C 1835.980469 1489.039062 1845.480469 1498.539062 1845.480469 1510.257812 C 1845.480469 1582.734375 1845.480469 1763.003906 1845.480469 1835.480469 C 1845.480469 1847.199219 1835.980469 1856.695312 1824.261719 1856.695312 L 1811.949219 1856.695312 C 1811.949219 1856.695312 1811.949219 1861.882812 1811.949219 1867.261719 C 1811.949219 1873.769531 1806.679688 1879.046875 1800.171875 1879.046875 C 1764.539062 1879.046875 1658.210938 1879.046875 1622.578125 1879.046875 C 1616.070312 1879.046875 1610.789062 1873.769531 1610.789062 1867.261719 C 1610.789062 1861.882812 1610.789062 1856.695312 1610.789062 1856.695312 L 1598.480469 1856.695312 C 1586.769531 1856.695312 1577.269531 1847.199219 1577.269531 1835.480469 C 1577.269531 1763.003906 1577.269531 1582.734375 1577.269531 1510.257812 C 1577.269531 1498.539062 1586.769531 1489.039062 1598.480469 1489.039062 L 1610.789062 1489.039062 C 1610.789062 1489.039062 1610.789062 1483.851562 1610.789062 1478.476562 C 1610.789062 1471.96875 1616.070312 1466.691406 1622.578125 1466.691406 Z M 1711.660156 1448.34375 C 1721.320312 1448.34375 1729.171875 1456.191406 1729.171875 1465.855469 C 1729.171875 1475.523438 1721.320312 1483.367188 1711.660156 1483.367188 C 1701.988281 1483.367188 1694.140625 1475.523438 1694.140625 1465.855469 C 1694.140625 1456.191406 1701.988281 1448.34375 1711.660156 1448.34375 "/>
<path fill-rule="evenodd" fill="rgb(21.99707%, 21.99707%, 21.99707%)" fill-opacity="1" d="M 1715.019531 1464.765625 C 1715.019531 1464.765625 1696.988281 1409.253906 1693.390625 1364.625 C 1692.21875 1350.15625 1692.539062 1336.859375 1695.648438 1327.136719 C 1698.359375 1318.675781 1703.261719 1313.105469 1711.730469 1312.933594 C 1718.578125 1312.796875 1723.71875 1314.457031 1727.429688 1317.628906 C 1733.191406 1322.550781 1735.460938 1330.824219 1735.941406 1340.492188 C 1737.269531 1367.011719 1724.660156 1403.683594 1719.460938 1420.085938 C 1718.871094 1421.945312 1719.898438 1423.933594 1721.761719 1424.523438 C 1723.621094 1425.113281 1725.609375 1424.082031 1726.199219 1422.222656 C 1731.558594 1405.316406 1744.378906 1367.472656 1743.011719 1340.140625 C 1742.410156 1328.261719 1739.101562 1318.300781 1732.03125 1312.253906 C 1727.179688 1308.109375 1720.539062 1305.683594 1711.589844 1305.863281 C 1694.710938 1306.203125 1687.058594 1321.441406 1685.878906 1343.449219 C 1683.378906 1389.976562 1708.289062 1466.949219 1708.289062 1466.949219 C 1708.890625 1468.804688 1710.890625 1469.820312 1712.75 1469.21875 C 1714.601562 1468.617188 1715.621094 1466.621094 1715.019531 1464.765625 "/>
<path fill-rule="evenodd" fill="rgb(88.28125%, 0%, 0%)" fill-opacity="1" d="M 1320.230469 1665.519531 C 1328.519531 1657.234375 1328.519531 1643.800781 1320.230469 1635.515625 C 1278.800781 1594.085938 1163.140625 1478.421875 1121.710938 1436.988281 C 1113.421875 1428.703125 1099.988281 1428.703125 1091.699219 1436.988281 C 1050.269531 1478.421875 934.605469 1594.085938 893.175781 1635.515625 C 884.890625 1643.800781 884.890625 1657.234375 893.175781 1665.519531 C 934.605469 1706.949219 1050.269531 1822.613281 1091.699219 1864.046875 C 1099.988281 1872.332031 1113.421875 1872.332031 1121.710938 1864.046875 C 1163.140625 1822.613281 1278.800781 1706.949219 1320.230469 1665.519531 Z M 1108.699219 1460.5 C 1118.359375 1460.5 1126.210938 1468.347656 1126.210938 1478.015625 C 1126.210938 1487.679688 1118.359375 1495.527344 1108.699219 1495.527344 C 1099.03125 1495.527344 1091.191406 1487.679688 1091.191406 1478.015625 C 1091.191406 1468.347656 1099.03125 1460.5 1108.699219 1460.5 "/>
<path fill-rule="evenodd" fill="rgb(21.99707%, 21.99707%, 21.99707%)" fill-opacity="1" d="M 1112.058594 1476.921875 C 1112.058594 1476.921875 1094.03125 1421.410156 1090.429688 1376.78125 C 1089.261719 1362.3125 1089.578125 1349.019531 1092.691406 1339.296875 C 1095.410156 1330.835938 1100.300781 1325.261719 1108.769531 1325.09375 C 1115.628906 1324.953125 1120.769531 1326.613281 1124.46875 1329.785156 C 1130.230469 1334.710938 1132.5 1342.984375 1132.988281 1352.648438 C 1134.308594 1379.167969 1121.699219 1415.839844 1116.5 1432.242188 C 1115.910156 1434.105469 1116.941406 1436.09375 1118.808594 1436.683594 C 1120.671875 1437.273438 1122.660156 1436.242188 1123.238281 1434.378906 C 1128.601562 1417.472656 1141.421875 1379.632812 1140.050781 1352.296875 C 1139.449219 1340.421875 1136.140625 1330.460938 1129.070312 1324.410156 C 1124.21875 1320.269531 1117.589844 1317.84375 1108.628906 1318.023438 C 1091.75 1318.359375 1084.101562 1333.597656 1082.921875 1355.605469 C 1080.421875 1402.132812 1105.339844 1479.105469 1105.339844 1479.105469 C 1105.941406 1480.960938 1107.929688 1481.980469 1109.789062 1481.378906 C 1111.648438 1480.773438 1112.660156 1478.777344 1112.058594 1476.921875 "/>
<path fill-rule="evenodd" fill="rgb(88.28125%, 0%, 0%)" fill-opacity="1" d="M 504.421875 1430.777344 C 628.125 1430.777344 728.558594 1531.207031 728.558594 1654.910156 C 728.558594 1778.613281 628.125 1879.046875 504.421875 1879.046875 C 380.71875 1879.046875 280.285156 1778.613281 280.285156 1654.910156 C 280.285156 1531.207031 380.71875 1430.777344 504.421875 1430.777344 Z M 504.925781 1457.015625 C 514.59375 1457.015625 522.441406 1464.859375 522.441406 1474.527344 C 522.441406 1484.191406 514.59375 1492.039062 504.925781 1492.039062 C 495.261719 1492.039062 487.414062 1484.191406 487.414062 1474.527344 C 487.414062 1464.859375 495.261719 1457.015625 504.925781 1457.015625 "/>
<path fill-rule="evenodd" fill="rgb(21.99707%, 21.99707%, 21.99707%)" fill-opacity="1" d="M 508.289062 1473.433594 C 508.289062 1473.433594 490.261719 1417.921875 486.660156 1373.292969 C 485.492188 1358.828125 485.808594 1345.53125 488.925781 1335.808594 C 491.632812 1327.347656 496.527344 1321.773438 504.996094 1321.605469 C 511.855469 1321.46875 516.992188 1323.128906 520.703125 1326.300781 C 526.460938 1331.222656 528.730469 1339.496094 529.214844 1349.164062 C 530.542969 1375.683594 517.929688 1412.355469 512.730469 1428.757812 C 512.140625 1430.617188 513.175781 1432.605469 515.035156 1433.195312 C 516.894531 1433.785156 518.882812 1432.753906 519.472656 1430.894531 C 524.832031 1413.984375 537.644531 1376.144531 536.277344 1348.808594 C 535.679688 1336.933594 532.371094 1326.972656 525.296875 1320.925781 C 520.453125 1316.78125 513.816406 1314.355469 504.855469 1314.535156 C 487.980469 1314.871094 480.332031 1330.113281 479.148438 1352.121094 C 476.652344 1398.644531 501.5625 1475.617188 501.5625 1475.617188 C 502.164062 1477.476562 504.160156 1478.492188 506.019531 1477.890625 C 507.875 1477.289062 508.894531 1475.292969 508.289062 1473.433594 "/>
<path fill-rule="evenodd" fill="rgb(88.28125%, 0%, 0%)" fill-opacity="1" d="M 441.941406 891.03125 C 441.941406 856.550781 469.9375 828.550781 504.421875 828.550781 C 538.90625 828.550781 566.902344 856.550781 566.902344 891.03125 L 629.382812 891.03125 L 629.382812 1286.746094 L 379.460938 1286.746094 L 379.460938 891.03125 Z M 504.492188 855.75 C 514.15625 855.75 522.003906 863.601562 522.003906 873.261719 C 522.003906 882.929688 514.15625 890.78125 504.492188 890.78125 C 494.824219 890.78125 486.976562 882.929688 486.976562 873.261719 C 486.976562 863.601562 494.824219 855.75 504.492188 855.75 "/>
<path fill-rule="evenodd" fill="rgb(21.99707%, 21.99707%, 21.99707%)" fill-opacity="1" d="M 507.855469 872.171875 C 507.855469 872.171875 489.824219 816.660156 486.222656 772.03125 C 485.054688 757.558594 485.371094 744.269531 488.488281 734.539062 C 491.199219 726.078125 496.089844 720.511719 504.5625 720.339844 C 511.417969 720.199219 516.558594 721.859375 520.265625 725.039062 C 526.023438 729.960938 528.292969 738.230469 528.777344 747.898438 C 530.105469 774.421875 517.492188 811.089844 512.296875 827.488281 C 511.707031 829.351562 512.738281 831.339844 514.597656 831.929688 C 516.457031 832.519531 518.445312 831.488281 519.035156 829.628906 C 524.394531 812.71875 537.210938 774.878906 535.839844 747.539062 C 535.246094 735.671875 531.933594 725.710938 524.863281 719.660156 C 520.015625 715.519531 513.378906 713.089844 504.421875 713.269531 C 487.542969 713.609375 479.894531 728.851562 478.714844 750.859375 C 476.214844 797.378906 501.128906 874.351562 501.128906 874.351562 C 501.730469 876.210938 503.726562 877.230469 505.582031 876.628906 C 507.4375 876.019531 508.457031 874.03125 507.855469 872.171875 "/>
<path fill-rule="evenodd" fill="rgb(88.28125%, 0%, 0%)" fill-opacity="1" d="M 1014.390625 894.011719 C 1014.390625 857.878906 1056.289062 828.550781 1107.898438 828.550781 C 1159.511719 828.550781 1201.410156 857.878906 1201.410156 894.011719 L 1221.058594 894.011719 C 1225.769531 894.011719 1230.28125 895.878906 1233.609375 899.210938 C 1236.941406 902.539062 1238.808594 907.050781 1238.808594 911.761719 C 1238.808594 977.078125 1238.808594 1203.671875 1238.808594 1268.996094 C 1238.808594 1273.703125 1236.941406 1278.21875 1233.609375 1281.546875 C 1230.28125 1284.878906 1225.769531 1286.746094 1221.058594 1286.746094 C 1173.300781 1286.746094 1042.488281 1286.746094 994.738281 1286.746094 C 990.027344 1286.746094 985.515625 1284.878906 982.183594 1281.546875 C 978.855469 1278.21875 976.984375 1273.703125 976.984375 1268.996094 C 976.984375 1203.671875 976.984375 977.078125 976.984375 911.761719 C 976.984375 907.050781 978.855469 902.539062 982.183594 899.210938 C 985.515625 895.878906 990.027344 894.011719 994.738281 894.011719 Z M 1105.148438 855.75 C 1114.808594 855.75 1122.660156 863.601562 1122.660156 873.261719 C 1122.660156 882.929688 1114.808594 890.78125 1105.148438 890.78125 C 1095.480469 890.78125 1087.640625 882.929688 1087.640625 873.261719 C 1087.640625 863.601562 1095.480469 855.75 1105.148438 855.75 "/>
<path fill-rule="evenodd" fill="rgb(21.99707%, 21.99707%, 21.99707%)" fill-opacity="1" d="M 1108.511719 872.171875 C 1108.511719 872.171875 1090.488281 816.660156 1086.878906 772.03125 C 1085.710938 757.558594 1086.03125 744.269531 1089.148438 734.539062 C 1091.859375 726.078125 1096.75 720.511719 1105.21875 720.339844 C 1112.078125 720.199219 1117.210938 721.859375 1120.921875 725.039062 C 1126.679688 729.960938 1128.949219 738.230469 1129.441406 747.898438 C 1130.761719 774.421875 1118.148438 811.089844 1112.949219 827.488281 C 1112.359375 829.351562 1113.398438 831.339844 1115.261719 831.929688 C 1117.121094 832.519531 1119.109375 831.488281 1119.691406 829.628906 C 1125.050781 812.71875 1137.871094 774.878906 1136.5 747.539062 C 1135.898438 735.671875 1132.589844 725.710938 1125.519531 719.660156 C 1120.671875 715.519531 1114.039062 713.089844 1105.078125 713.269531 C 1088.199219 713.609375 1080.550781 728.851562 1079.371094 750.859375 C 1076.878906 797.378906 1101.789062 874.351562 1101.789062 874.351562 C 1102.390625 876.210938 1104.378906 877.230469 1106.238281 876.628906 C 1108.101562 876.019531 1109.121094 874.03125 1108.511719 872.171875 "/>
<path fill-rule="evenodd" fill="rgb(88.28125%, 0%, 0%)" fill-opacity="1" d="M 1842.359375 956.230469 C 1842.359375 951.191406 1840.359375 946.359375 1836.800781 942.800781 C 1817.488281 923.488281 1753.03125 859.039062 1724.808594 830.808594 C 1717.390625 823.390625 1705.359375 823.390625 1697.941406 830.808594 C 1669.710938 859.039062 1605.261719 923.488281 1585.949219 942.800781 C 1582.390625 946.359375 1580.390625 951.191406 1580.390625 956.230469 C 1580.390625 999.011719 1580.390625 1203.957031 1580.390625 1267.75 C 1580.390625 1272.789062 1582.390625 1277.621094 1585.949219 1281.183594 C 1589.511719 1284.746094 1594.339844 1286.746094 1599.378906 1286.746094 C 1647.730469 1286.746094 1775.019531 1286.746094 1823.359375 1286.746094 C 1828.398438 1286.746094 1833.230469 1284.746094 1836.800781 1281.183594 C 1840.359375 1277.621094 1842.359375 1272.789062 1842.359375 1267.75 C 1842.359375 1203.957031 1842.359375 999.011719 1842.359375 956.230469 Z M 1711.441406 855.75 C 1721.109375 855.75 1728.960938 863.601562 1728.960938 873.261719 C 1728.960938 882.929688 1721.109375 890.78125 1711.441406 890.78125 C 1701.78125 890.78125 1693.929688 882.929688 1693.929688 873.261719 C 1693.929688 863.601562 1701.78125 855.75 1711.441406 855.75 "/>
<path fill-rule="evenodd" fill="rgb(21.99707%, 21.99707%, 21.99707%)" fill-opacity="1" d="M 1714.808594 872.171875 C 1714.808594 872.171875 1696.78125 816.660156 1693.179688 772.03125 C 1692.011719 757.558594 1692.320312 744.269531 1695.441406 734.539062 C 1698.148438 726.078125 1703.039062 720.511719 1711.511719 720.339844 C 1718.371094 720.199219 1723.511719 721.859375 1727.21875 725.039062 C 1732.980469 729.960938 1735.238281 738.230469 1735.730469 747.898438 C 1737.058594 774.421875 1724.449219 811.089844 1719.25 827.488281 C 1718.660156 829.351562 1719.691406 831.339844 1721.550781 831.929688 C 1723.410156 832.519531 1725.398438 831.488281 1725.988281 829.628906 C 1731.351562 812.71875 1744.160156 774.878906 1742.789062 747.539062 C 1742.199219 735.671875 1738.890625 725.710938 1731.808594 719.660156 C 1726.96875 715.519531 1720.328125 713.089844 1711.371094 713.269531 C 1694.488281 713.609375 1686.851562 728.851562 1685.671875 750.859375 C 1683.171875 797.378906 1708.078125 874.351562 1708.078125 874.351562 C 1708.679688 876.210938 1710.679688 877.230469 1712.53125 876.628906 C 1714.390625 876.019531 1715.410156 874.03125 1714.808594 872.171875 "/>
<path fill-rule="evenodd" fill="rgb(88.28125%, 0%, 0%)" fill-opacity="1" d="M 2271.710938 856.878906 C 2277.148438 841.050781 2294.609375 828.550781 2314.851562 828.550781 C 2335.089844 828.550781 2352.550781 841.050781 2357.988281 856.878906 C 2369.410156 844.628906 2390.441406 840.320312 2408.929688 848.550781 C 2427.421875 856.78125 2438.289062 875.300781 2436.820312 891.980469 C 2452.230469 885.429688 2473.199219 890.039062 2486.75 905.089844 C 2500.289062 920.128906 2502.691406 941.46875 2494.558594 956.109375 C 2511.300781 956.390625 2528.589844 969.128906 2534.839844 988.378906 C 2541.089844 1007.632812 2534.601562 1028.105469 2521.230469 1038.171875 C 2536.398438 1045.238281 2547.011719 1063.914062 2544.890625 1084.042969 C 2542.78125 1104.171875 2528.519531 1120.230469 2512.210938 1123.988281 C 2523.199219 1136.617188 2525.289062 1157.988281 2515.171875 1175.519531 C 2505.050781 1193.046875 2485.5 1201.921875 2469.058594 1198.71875 C 2473.96875 1214.726562 2467.191406 1235.101562 2450.808594 1246.996094 C 2434.441406 1258.894531 2412.960938 1259.046875 2399.25 1249.4375 C 2397.21875 1266.054688 2382.738281 1281.910156 2362.941406 1286.117188 C 2343.140625 1290.328125 2323.460938 1281.734375 2314.851562 1267.378906 C 2306.238281 1281.734375 2286.558594 1290.328125 2266.761719 1286.117188 C 2246.960938 1281.910156 2232.480469 1266.054688 2230.449219 1249.4375 C 2216.738281 1259.046875 2195.261719 1258.894531 2178.890625 1246.996094 C 2162.511719 1235.101562 2155.730469 1214.726562 2160.640625 1198.71875 C 2144.199219 1201.921875 2124.648438 1193.046875 2114.53125 1175.519531 C 2104.410156 1157.988281 2106.5 1136.617188 2117.488281 1123.988281 C 2101.179688 1120.230469 2086.921875 1104.171875 2084.808594 1084.042969 C 2082.691406 1063.914062 2093.289062 1045.238281 2108.46875 1038.171875 C 2095.101562 1028.105469 2088.609375 1007.632812 2094.859375 988.378906 C 2101.109375 969.128906 2118.398438 956.390625 2135.140625 956.109375 C 2127.011719 941.46875 2129.410156 920.128906 2142.949219 905.089844 C 2156.5 890.039062 2177.46875 885.429688 2192.878906 891.980469 C 2191.410156 875.300781 2202.28125 856.78125 2220.769531 848.550781 C 2239.261719 840.320312 2260.289062 844.628906 2271.710938 856.878906 Z M 2314.921875 855.75 C 2324.578125 855.75 2332.429688 863.601562 2332.429688 873.261719 C 2332.429688 882.929688 2324.578125 890.78125 2314.921875 890.78125 C 2305.25 890.78125 2297.410156 882.929688 2297.410156 873.261719 C 2297.410156 863.601562 2305.25 855.75 2314.921875 855.75 "/>
<path fill-rule="evenodd" fill="rgb(21.99707%, 21.99707%, 21.99707%)" fill-opacity="1" d="M 2318.28125 872.171875 C 2318.28125 872.171875 2300.25 816.660156 2296.648438 772.03125 C 2295.480469 757.558594 2295.800781 744.269531 2298.921875 734.539062 C 2301.628906 726.078125 2306.519531 720.511719 2314.988281 720.339844 C 2321.839844 720.199219 2326.988281 721.859375 2330.691406 725.039062 C 2336.449219 729.960938 2338.71875 738.230469 2339.210938 747.898438 C 2340.53125 774.421875 2327.921875 811.089844 2322.71875 827.488281 C 2322.128906 829.351562 2323.171875 831.339844 2325.03125 831.929688 C 2326.890625 832.519531 2328.878906 831.488281 2329.46875 829.628906 C 2334.820312 812.71875 2347.640625 774.878906 2346.269531 747.539062 C 2345.671875 735.671875 2342.359375 725.710938 2335.289062 719.660156 C 2330.441406 715.519531 2323.808594 713.089844 2314.851562 713.269531 C 2297.96875 713.609375 2290.320312 728.851562 2289.140625 750.859375 C 2286.640625 797.378906 2311.558594 874.351562 2311.558594 874.351562 C 2312.160156 876.210938 2314.148438 877.230469 2316.011719 876.628906 C 2317.871094 876.019531 2318.878906 874.03125 2318.28125 872.171875 "/>
<path fill-rule="evenodd" fill="rgb(88.28125%, 0%, 0%)" fill-opacity="1" d="M 3018.910156 839.730469 C 3018.910156 839.730469 3018.910156 834.539062 3018.910156 829.160156 C 3018.910156 822.648438 3013.628906 817.378906 3007.121094 817.378906 C 2971.488281 817.378906 2865.160156 817.378906 2829.53125 817.378906 C 2823.019531 817.378906 2817.75 822.648438 2817.75 829.160156 C 2817.75 834.539062 2817.75 839.730469 2817.75 839.730469 L 2805.441406 839.730469 C 2793.71875 839.730469 2784.21875 849.230469 2784.21875 860.941406 C 2784.21875 933.421875 2784.21875 1170.703125 2784.21875 1243.179688 C 2784.21875 1254.898438 2793.71875 1264.394531 2805.441406 1264.394531 L 2817.75 1264.394531 C 2817.75 1264.394531 2817.75 1269.585938 2817.75 1274.960938 C 2817.75 1281.46875 2823.019531 1286.746094 2829.53125 1286.746094 C 2865.160156 1286.746094 2971.488281 1286.746094 3007.121094 1286.746094 C 3013.628906 1286.746094 3018.910156 1281.46875 3018.910156 1274.960938 C 3018.910156 1269.585938 3018.910156 1264.394531 3018.910156 1264.394531 L 3031.21875 1264.394531 C 3042.929688 1264.394531 3052.429688 1254.898438 3052.429688 1243.179688 C 3052.429688 1170.703125 3052.429688 933.421875 3052.429688 860.941406 C 3052.429688 849.230469 3042.929688 839.730469 3031.21875 839.730469 Z M 2918.390625 844.570312 C 2928.058594 844.570312 2935.910156 852.421875 2935.910156 862.089844 C 2935.910156 871.75 2928.058594 879.601562 2918.390625 879.601562 C 2908.730469 879.601562 2900.878906 871.75 2900.878906 862.089844 C 2900.878906 852.421875 2908.730469 844.570312 2918.390625 844.570312 "/>
<path fill-rule="evenodd" fill="rgb(21.99707%, 21.99707%, 21.99707%)" fill-opacity="1" d="M 2921.761719 861 C 2921.761719 861 2903.730469 805.480469 2900.128906 760.859375 C 2898.960938 746.390625 2899.28125 733.089844 2902.390625 723.371094 C 2905.101562 714.910156 2910 709.328125 2918.46875 709.171875 C 2925.320312 709.03125 2930.460938 710.691406 2934.171875 713.859375 C 2939.929688 718.78125 2942.199219 727.058594 2942.679688 736.71875 C 2944.011719 763.238281 2931.398438 799.910156 2926.199219 816.320312 C 2925.609375 818.179688 2926.640625 820.171875 2928.5 820.761719 C 2930.359375 821.351562 2932.351562 820.308594 2932.941406 818.449219 C 2938.300781 801.550781 2951.109375 763.710938 2949.738281 736.371094 C 2949.148438 724.488281 2945.839844 714.53125 2938.761719 708.480469 C 2933.921875 704.339844 2927.28125 701.921875 2918.320312 702.089844 C 2901.449219 702.429688 2893.800781 717.671875 2892.621094 739.679688 C 2890.121094 786.210938 2915.03125 863.179688 2915.03125 863.179688 C 2915.628906 865.039062 2917.628906 866.050781 2919.488281 865.449219 C 2921.339844 864.851562 2922.359375 862.851562 2921.761719 861 "/>
<path fill-rule="evenodd" fill="rgb(88.28125%, 0%, 0%)" fill-opacity="1" d="M 3652.789062 871.960938 L 3609.128906 817.378906 L 3434.480469 817.378906 L 3390.808594 871.960938 L 3390.808594 1286.746094 L 3652.789062 1286.746094 Z M 3521.871094 844.570312 C 3531.539062 844.570312 3539.378906 852.421875 3539.378906 862.089844 C 3539.378906 871.75 3531.539062 879.601562 3521.871094 879.601562 C 3512.199219 879.601562 3504.359375 871.75 3504.359375 862.089844 C 3504.359375 852.421875 3512.199219 844.570312 3521.871094 844.570312 "/>
<path fill-rule="evenodd" fill="rgb(21.99707%, 21.99707%, 21.99707%)" fill-opacity="1" d="M 3525.230469 861 C 3525.230469 861 3507.210938 805.480469 3503.601562 760.859375 C 3502.429688 746.390625 3502.75 733.089844 3505.871094 723.371094 C 3508.578125 714.910156 3513.46875 709.328125 3521.941406 709.171875 C 3528.800781 709.03125 3533.941406 710.691406 3537.640625 713.859375 C 3543.398438 718.78125 3545.671875 727.058594 3546.160156 736.71875 C 3547.488281 763.238281 3534.871094 799.910156 3529.679688 816.320312 C 3529.089844 818.179688 3530.121094 820.171875 3531.980469 820.761719 C 3533.839844 821.351562 3535.828125 820.308594 3536.421875 818.449219 C 3541.78125 801.550781 3554.589844 763.710938 3553.21875 736.371094 C 3552.621094 724.488281 3549.308594 714.53125 3542.238281 708.480469 C 3537.390625 704.339844 3530.761719 701.921875 3521.800781 702.089844 C 3504.921875 702.429688 3497.269531 717.671875 3496.089844 739.679688 C 3493.601562 786.210938 3518.511719 863.179688 3518.511719 863.179688 C 3519.109375 865.039062 3521.109375 866.050781 3522.960938 865.449219 C 3524.820312 864.851562 3525.839844 862.851562 3525.230469 861 "/>
<path fill-rule="evenodd" fill="rgb(88.28125%, 0%, 0%)" fill-opacity="1" d="M 3398.960938 582.839844 L 3398.960938 314.328125 C 3398.960938 309.910156 3400.710938 305.679688 3403.839844 302.550781 C 3406.960938 299.429688 3411.199219 297.671875 3415.621094 297.671875 L 3434.058594 297.671875 C 3434.058594 263.769531 3473.371094 236.25 3521.800781 236.25 C 3570.230469 236.25 3609.539062 263.769531 3609.539062 297.671875 L 3627.988281 297.671875 C 3632.398438 297.671875 3636.640625 299.429688 3639.761719 302.550781 C 3642.890625 305.679688 3644.640625 309.910156 3644.640625 314.328125 L 3644.640625 582.839844 C 3644.640625 587.261719 3642.890625 591.5 3639.761719 594.621094 C 3636.640625 597.738281 3632.398438 599.5 3627.988281 599.5 L 3609.539062 599.5 C 3609.539062 633.398438 3570.230469 660.921875 3521.800781 660.921875 C 3473.371094 660.921875 3434.058594 633.398438 3434.058594 599.5 L 3415.621094 599.5 C 3411.199219 599.5 3406.960938 597.738281 3403.839844 594.621094 C 3400.710938 591.5 3398.960938 587.261719 3398.960938 582.839844 Z M 3521.871094 263.441406 C 3531.539062 263.441406 3539.378906 271.289062 3539.378906 280.949219 C 3539.378906 290.621094 3531.539062 298.46875 3521.871094 298.46875 C 3512.199219 298.46875 3504.359375 290.621094 3504.359375 280.949219 C 3504.359375 271.289062 3512.199219 263.441406 3521.871094 263.441406 "/>
<path fill-rule="evenodd" fill="rgb(21.99707%, 21.99707%, 21.99707%)" fill-opacity="1" d="M 3525.230469 279.859375 C 3525.230469 279.859375 3507.210938 224.351562 3503.601562 179.71875 C 3502.429688 165.25 3502.75 151.960938 3505.871094 142.230469 C 3508.578125 133.769531 3513.46875 128.199219 3521.941406 128.03125 C 3528.800781 127.890625 3533.941406 129.558594 3537.640625 132.730469 C 3543.398438 137.648438 3545.671875 145.921875 3546.160156 155.589844 C 3547.488281 182.109375 3534.871094 218.78125 3529.679688 235.179688 C 3529.089844 237.039062 3530.121094 239.03125 3531.980469 239.621094 C 3533.839844 240.210938 3535.828125 239.179688 3536.421875 237.320312 C 3541.78125 220.410156 3554.589844 182.570312 3553.21875 155.238281 C 3552.621094 143.359375 3549.308594 133.398438 3542.238281 127.351562 C 3537.390625 123.210938 3530.761719 120.78125 3521.800781 120.960938 C 3504.921875 121.300781 3497.269531 136.539062 3496.089844 158.550781 C 3493.601562 205.070312 3518.511719 282.039062 3518.511719 282.039062 C 3519.109375 283.898438 3521.109375 284.921875 3522.960938 284.320312 C 3524.820312 283.710938 3525.839844 281.71875 3525.230469 279.859375 "/>
<path fill-rule="evenodd" fill="rgb(88.28125%, 0%, 0%)" fill-opacity="1" d="M 2802.511719 352.070312 L 2802.511719 545.101562 C 2802.511719 549.449219 2804.238281 553.628906 2807.308594 556.699219 C 2824.300781 573.691406 2881.859375 631.25 2906.71875 656.109375 C 2913.128906 662.519531 2923.519531 662.519531 2929.929688 656.109375 C 2954.789062 631.25 3012.351562 573.691406 3029.339844 556.699219 C 3032.421875 553.628906 3034.140625 549.449219 3034.140625 545.101562 L 3034.140625 352.070312 C 3034.140625 347.71875 3032.421875 343.550781 3029.339844 340.46875 C 3012.351562 323.480469 2954.789062 265.921875 2929.929688 241.058594 C 2923.519531 234.648438 2913.128906 234.648438 2906.71875 241.058594 C 2881.859375 265.921875 2824.300781 323.480469 2807.308594 340.46875 C 2804.238281 343.550781 2802.511719 347.71875 2802.511719 352.070312 Z M 2918.390625 265.839844 C 2928.730469 265.839844 2937.128906 274.230469 2937.128906 284.570312 C 2937.128906 294.910156 2928.730469 303.308594 2918.390625 303.308594 C 2908.050781 303.308594 2899.660156 294.910156 2899.660156 284.570312 C 2899.660156 274.230469 2908.050781 265.839844 2918.390625 265.839844 "/>
<path fill-rule="evenodd" fill="rgb(21.99707%, 21.99707%, 21.99707%)" fill-opacity="1" d="M 2921.761719 283.480469 C 2921.761719 283.480469 2903.730469 227.96875 2900.128906 183.339844 C 2898.960938 168.871094 2899.28125 155.570312 2902.390625 145.851562 C 2905.101562 137.390625 2910 131.820312 2918.46875 131.648438 C 2925.320312 131.511719 2930.460938 133.171875 2934.171875 136.339844 C 2939.929688 141.269531 2942.199219 149.539062 2942.679688 159.210938 C 2944.011719 185.71875 2931.398438 222.398438 2926.199219 238.800781 C 2925.609375 240.660156 2926.640625 242.648438 2928.5 243.238281 C 2930.359375 243.828125 2932.351562 242.800781 2932.941406 240.941406 C 2938.300781 224.03125 2951.109375 186.191406 2949.738281 158.851562 C 2949.148438 146.980469 2945.839844 137.019531 2938.761719 130.96875 C 2933.921875 126.820312 2927.28125 124.398438 2918.320312 124.578125 C 2901.449219 124.921875 2893.800781 140.160156 2892.621094 162.160156 C 2890.121094 208.691406 2915.03125 285.660156 2915.03125 285.660156 C 2915.628906 287.519531 2917.628906 288.539062 2919.488281 287.929688 C 2921.339844 287.328125 2922.359375 285.328125 2921.761719 283.480469 "/>
<path fill-rule="evenodd" fill="rgb(88.28125%, 0%, 0%)" fill-opacity="1" d="M 2448.960938 639.699219 C 2448.960938 651.421875 2439.460938 660.921875 2427.738281 660.921875 C 2377.578125 660.921875 2252.121094 660.921875 2201.960938 660.921875 C 2190.238281 660.921875 2180.738281 651.421875 2180.738281 639.699219 C 2180.738281 591 2180.738281 467.878906 2180.738281 370.359375 C 2180.738281 334.789062 2194.871094 300.679688 2220.019531 275.53125 C 2245.171875 250.378906 2279.28125 236.25 2314.851562 236.25 C 2350.421875 236.25 2384.53125 250.378906 2409.679688 275.53125 C 2434.828125 300.679688 2448.960938 334.789062 2448.960938 370.359375 C 2448.960938 467.878906 2448.960938 591 2448.960938 639.699219 Z M 2314.921875 263.460938 C 2324.578125 263.460938 2332.421875 271.300781 2332.421875 280.960938 C 2332.421875 290.621094 2324.578125 298.46875 2314.921875 298.46875 C 2305.261719 298.46875 2297.410156 290.621094 2297.410156 280.960938 C 2297.410156 271.300781 2305.261719 263.460938 2314.921875 263.460938 "/>
<path fill-rule="evenodd" fill="rgb(21.99707%, 21.99707%, 21.99707%)" fill-opacity="1" d="M 2318.28125 279.871094 C 2318.28125 279.871094 2300.25 224.359375 2296.648438 179.730469 C 2295.480469 165.261719 2295.800781 151.96875 2298.921875 142.238281 C 2301.628906 133.78125 2306.519531 128.210938 2314.988281 128.039062 C 2321.839844 127.898438 2326.988281 129.558594 2330.691406 132.730469 C 2336.449219 137.660156 2338.71875 145.929688 2339.210938 155.601562 C 2340.53125 182.121094 2327.921875 218.789062 2322.71875 235.191406 C 2322.128906 237.050781 2323.171875 239.039062 2325.03125 239.628906 C 2326.890625 240.21875 2328.878906 239.191406 2329.46875 237.328125 C 2334.820312 220.421875 2347.640625 182.578125 2346.269531 155.238281 C 2345.671875 143.371094 2342.359375 133.410156 2335.289062 127.359375 C 2330.441406 123.21875 2323.808594 120.789062 2314.851562 120.96875 C 2297.96875 121.308594 2290.320312 136.550781 2289.140625 158.558594 C 2286.640625 205.078125 2311.558594 282.050781 2311.558594 282.050781 C 2312.160156 283.910156 2314.148438 284.929688 2316.011719 284.328125 C 2317.871094 283.71875 2318.878906 281.730469 2318.28125 279.871094 "/>
<path fill-rule="evenodd" fill="rgb(88.28125%, 0%, 0%)" fill-opacity="1" d="M 1648.988281 303.570312 L 1575.820312 303.570312 C 1567.511719 303.570312 1560.78125 310.308594 1560.78125 318.621094 L 1560.78125 391.789062 L 1509.039062 443.53125 C 1503.160156 449.410156 1503.160156 458.941406 1509.039062 464.808594 L 1560.78125 516.550781 L 1560.78125 589.71875 C 1560.78125 598.039062 1567.511719 604.769531 1575.820312 604.769531 L 1648.988281 604.769531 L 1700.730469 656.511719 C 1706.609375 662.390625 1716.140625 662.390625 1722.011719 656.511719 L 1773.75 604.769531 L 1846.929688 604.769531 C 1855.238281 604.769531 1861.96875 598.039062 1861.96875 589.71875 L 1861.96875 516.550781 L 1913.710938 464.808594 C 1919.589844 458.941406 1919.589844 449.410156 1913.710938 443.53125 L 1861.96875 391.789062 L 1861.96875 318.621094 C 1861.96875 310.308594 1855.238281 303.570312 1846.929688 303.570312 L 1773.75 303.570312 L 1722.011719 251.828125 C 1716.140625 245.960938 1706.609375 245.960938 1700.730469 251.828125 Z M 1711.441406 285.75 C 1721.128906 285.75 1728.988281 293.621094 1728.988281 303.308594 C 1728.988281 312.988281 1721.128906 320.859375 1711.441406 320.859375 C 1701.761719 320.859375 1693.890625 312.988281 1693.890625 303.308594 C 1693.890625 293.621094 1701.761719 285.75 1711.441406 285.75 "/>
<path fill-rule="evenodd" fill="rgb(21.99707%, 21.99707%, 21.99707%)" fill-opacity="1" d="M 1714.808594 302.210938 C 1714.808594 302.210938 1696.78125 246.699219 1693.179688 202.070312 C 1692.011719 187.609375 1692.320312 174.308594 1695.441406 164.589844 C 1698.148438 156.121094 1703.039062 150.550781 1711.511719 150.378906 C 1718.421875 150.238281 1723.601562 151.75 1727.328125 154.671875 C 1733 159.101562 1735.238281 166.578125 1735.710938 175.359375 C 1737.011719 199.761719 1724.371094 233.78125 1719.179688 250.160156 C 1718.589844 252.019531 1719.621094 254.011719 1721.480469 254.601562 C 1723.339844 255.191406 1725.328125 254.160156 1725.921875 252.300781 C 1731.28125 235.378906 1744.121094 200.191406 1742.769531 174.980469 C 1742.171875 163.910156 1738.839844 154.691406 1731.691406 149.101562 C 1726.878906 145.339844 1720.28125 143.128906 1711.371094 143.308594 C 1694.488281 143.648438 1686.851562 158.890625 1685.671875 180.898438 C 1683.171875 227.421875 1708.078125 304.398438 1708.078125 304.398438 C 1708.679688 306.25 1710.679688 307.269531 1712.53125 306.671875 C 1714.390625 306.070312 1715.410156 304.070312 1714.808594 302.210938 "/>
<path fill-rule="evenodd" fill="rgb(88.28125%, 0%, 0%)" fill-opacity="1" d="M 1242 257.46875 C 1242 245.75 1232.511719 236.25 1220.789062 236.25 C 1170.628906 236.25 1045.171875 236.25 995.007812 236.25 C 983.289062 236.25 973.792969 245.75 973.792969 257.46875 C 973.792969 329.941406 973.792969 567.230469 973.792969 639.699219 C 973.792969 651.421875 983.289062 660.921875 995.007812 660.921875 C 1045.171875 660.921875 1170.628906 660.921875 1220.789062 660.921875 C 1232.511719 660.921875 1242 651.421875 1242 639.699219 C 1242 567.230469 1242 329.941406 1242 257.46875 Z M 1107.96875 263.441406 C 1117.628906 263.441406 1125.480469 271.289062 1125.480469 280.949219 C 1125.480469 290.621094 1117.628906 298.46875 1107.96875 298.46875 C 1098.300781 298.46875 1090.449219 290.621094 1090.449219 280.949219 C 1090.449219 271.289062 1098.300781 263.441406 1107.96875 263.441406 "/>
<path fill-rule="evenodd" fill="rgb(21.99707%, 21.99707%, 21.99707%)" fill-opacity="1" d="M 1111.328125 279.859375 C 1111.328125 279.859375 1093.300781 224.351562 1089.699219 179.71875 C 1088.53125 165.25 1088.851562 151.960938 1091.960938 142.230469 C 1094.671875 133.769531 1099.570312 128.199219 1108.039062 128.03125 C 1114.890625 127.890625 1120.03125 129.558594 1123.738281 132.730469 C 1129.5 137.648438 1131.769531 145.921875 1132.25 155.589844 C 1133.578125 182.109375 1120.96875 218.78125 1115.769531 235.179688 C 1115.179688 237.039062 1116.210938 239.03125 1118.070312 239.621094 C 1119.929688 240.210938 1121.921875 239.179688 1122.511719 237.320312 C 1127.871094 220.410156 1140.691406 182.570312 1139.320312 155.238281 C 1138.71875 143.359375 1135.410156 133.398438 1128.339844 127.351562 C 1123.488281 123.210938 1116.859375 120.78125 1107.898438 120.960938 C 1091.019531 121.300781 1083.371094 136.539062 1082.191406 158.550781 C 1079.691406 205.070312 1104.601562 282.039062 1104.601562 282.039062 C 1105.210938 283.898438 1107.199219 284.921875 1109.058594 284.320312 C 1110.910156 283.710938 1111.929688 281.71875 1111.328125 279.859375 "/>
<path fill-rule="evenodd" fill="rgb(88.084412%, 0%, 0%)" fill-opacity="1" d="M 716.757812 257.46875 C 716.757812 245.75 707.257812 236.25 695.539062 236.25 C 623.0625 236.25 385.78125 236.25 313.304688 236.25 C 301.585938 236.25 292.089844 245.75 292.089844 257.46875 C 292.089844 329.941406 292.089844 567.230469 292.089844 639.699219 C 292.089844 651.421875 301.585938 660.921875 313.304688 660.921875 C 385.78125 660.921875 623.0625 660.921875 695.539062 660.921875 C 707.257812 660.921875 716.757812 651.421875 716.757812 639.699219 C 716.757812 567.230469 716.757812 329.941406 716.757812 257.46875 Z M 504.421875 263.441406 C 514.089844 263.441406 521.933594 271.289062 521.933594 280.949219 C 521.933594 290.621094 514.089844 298.46875 504.421875 298.46875 C 494.757812 298.46875 486.910156 290.621094 486.910156 280.949219 C 486.910156 271.289062 494.757812 263.441406 504.421875 263.441406 "/>
<path fill-rule="evenodd" fill="rgb(21.99707%, 21.99707%, 21.99707%)" fill-opacity="1" d="M 507.785156 279.859375 C 507.785156 279.859375 489.757812 224.351562 486.15625 179.71875 C 484.988281 165.25 485.304688 151.960938 488.417969 142.230469 C 491.128906 133.769531 496.023438 128.199219 504.492188 128.03125 C 511.347656 127.890625 516.488281 129.558594 520.195312 132.730469 C 525.953125 137.648438 528.222656 145.921875 528.707031 155.589844 C 530.035156 182.109375 517.425781 218.78125 512.226562 235.179688 C 511.636719 237.039062 512.667969 239.03125 514.527344 239.621094 C 516.390625 240.210938 518.378906 239.179688 518.96875 237.320312 C 524.328125 220.410156 537.140625 182.570312 535.769531 155.238281 C 535.175781 143.359375 531.867188 133.398438 524.792969 127.351562 C 519.945312 123.210938 513.308594 120.78125 504.351562 120.960938 C 487.476562 121.300781 479.824219 136.539062 478.644531 158.550781 C 476.148438 205.070312 501.058594 282.039062 501.058594 282.039062 C 501.660156 283.898438 503.65625 284.921875 505.511719 284.320312 C 507.371094 283.710938 508.386719 281.71875 507.785156 279.859375 "/>
</svg>
